<?xml version="1.0" encoding="utf-8"?>
<!-- Generator: Adobe Illustrator 20.1.0, SVG Export Plug-In . SVG Version: 6.00 Build 0)  -->
<svg version="1.1" id="Layer_1" xmlns="http://www.w3.org/2000/svg" xmlns:xlink="http://www.w3.org/1999/xlink" x="0px" y="0px"
	 viewBox="0 0 486.8 34" style="enable-background:new 0 0 486.8 34;" xml:space="preserve">
<style type="text/css">
	.st0{fill:#9197A3;}
</style>
<g>
	<path d="M0,28.7l4.3-5.1c3,2.4,6.1,4,9.8,4c3,0,4.7-1.2,4.7-3.1v-0.1c0-1.8-1.1-2.8-6.6-4.2C5.6,18.5,1.3,16.6,1.3,10.1V10
		c0-6,4.8-9.9,11.5-9.9c4.8,0,8.9,1.5,12.2,4.2l-3.8,5.5c-2.9-2-5.8-3.2-8.6-3.2S8.5,7.8,8.5,9.4v0.1c0,2.2,1.4,2.9,7.1,4.3
		c6.7,1.7,10.4,4.1,10.4,9.9v0.1c0,6.5-5,10.2-12.1,10.2C9,33.9,3.9,32.2,0,28.7z"/>
	<path d="M34.7,28.7l4.3-5.1c3,2.4,6.1,4,9.8,4c3,0,4.7-1.2,4.7-3.1v-0.1c0-1.8-1.1-2.8-6.6-4.2C40.3,18.5,36,16.6,36,10.1V10
		c0-6,4.8-9.9,11.5-9.9c4.8,0,8.9,1.5,12.2,4.2L56,9.7c-2.9-2-5.8-3.2-8.6-3.2s-4.2,1.3-4.2,2.9v0.1c0,2.2,1.4,2.9,7.1,4.3
		c6.7,1.7,10.4,4.1,10.4,9.9v0.1c0,6.5-5,10.2-12.1,10.2C43.7,33.9,38.6,32.2,34.7,28.7z"/>
	<path d="M72.1,0.6h24.8V7H79.3v6.7h15.5v6.4H79.3V27h17.9v6.4h-25V0.6z"/>
	<path d="M108.6,0.6h6.7l15.4,20.3V0.6h7.1v32.9h-6.2l-15.9-20.9v20.9h-7.1V0.6z"/>
	<path d="M148.6,28.7l4.3-5.1c3,2.4,6.1,4,9.8,4c3,0,4.7-1.2,4.7-3.1v-0.1c0-1.8-1.1-2.8-6.6-4.2c-6.6-1.7-10.9-3.5-10.9-10.1V10
		c0-6,4.8-9.9,11.5-9.9c4.8,0,8.9,1.5,12.2,4.2l-3.8,5.5c-2.9-2-5.8-3.2-8.6-3.2c-2.8,0-4.2,1.3-4.2,2.9v0.1c0,2.2,1.4,2.9,7.1,4.3
		c6.7,1.7,10.4,4.1,10.4,9.9v0.1c0,6.5-5,10.2-12.1,10.2C157.6,33.9,152.5,32.2,148.6,28.7z"/>
	<path d="M186,0.6h24.8V7h-17.6v6.7h15.5v6.4h-15.5V27H211v6.4h-25V0.6z"/>
	<path class="st0" d="M222.5,0.6h7.8l8.6,13.9l8.6-13.9h7.8v32.9h-7.2V12L239,26h-0.2l-9.2-13.9v21.3h-7.1V0.6z"/>
	<path class="st0" d="M277.7,20.5L265,0.6h8.5l7.8,13.2l8-13.2h8.2l-12.6,19.8v13.1h-7.2V20.5z"/>
	<path d="M303.2,28.7l4.3-5.1c3,2.4,6.1,4,9.8,4c3,0,4.7-1.2,4.7-3.1v-0.1c0-1.8-1.1-2.8-6.6-4.2c-6.6-1.7-10.9-3.5-10.9-10.1V10
		c0-6,4.8-9.9,11.5-9.9c4.8,0,8.9,1.5,12.2,4.2l-3.8,5.5c-2.9-2-5.8-3.2-8.6-3.2c-2.8,0-4.2,1.3-4.2,2.9v0.1c0,2.2,1.4,2.9,7.1,4.3
		c6.7,1.7,10.4,4.1,10.4,9.9v0.1c0,6.5-5,10.2-12.1,10.2C312.2,33.9,307.2,32.2,303.2,28.7z"/>
	<path d="M340.6,0.6h7.2v13h13.3v-13h7.2v32.9h-7.2V20.3h-13.3v13.2h-7.2V0.6z"/>
	<path d="M379.9,17.1L379.9,17.1c0-9.4,7.4-17.1,17.5-17.1c10.2,0,17.4,7.6,17.4,16.9V17c0,9.4-7.4,17-17.5,17
		S379.9,26.5,379.9,17.1z M407.3,17.1L407.3,17.1c0-5.7-4.1-10.4-10-10.4c-5.8,0-9.9,4.6-9.9,10.2V17c0,5.6,4.1,10.3,10,10.3
		C403.3,27.3,407.3,22.7,407.3,17.1z"/>
	<path d="M426.4,0.6h24.8V7h-17.6v6.7h15.5v6.4h-15.5V27h17.9v6.4h-25V0.6z"/>
	<path d="M460.7,28.7l4.3-5.1c3,2.4,6.1,4,9.8,4c3,0,4.7-1.2,4.7-3.1v-0.1c0-1.8-1.1-2.8-6.6-4.2c-6.6-1.7-10.9-3.5-10.9-10.1V10
		c0-6,4.8-9.9,11.5-9.9c4.8,0,8.9,1.5,12.2,4.2L482,9.7c-2.9-2-5.8-3.2-8.6-3.2c-2.8,0-4.2,1.3-4.2,2.9v0.1c0,2.2,1.4,2.9,7.1,4.3
		c6.7,1.7,10.4,4.1,10.4,9.9v0.1c0,6.5-5,10.2-12.1,10.2C469.7,33.9,464.7,32.2,460.7,28.7z"/>
</g>
</svg>
